<svg xmlns="http://www.w3.org/2000/svg" viewBox="0 0 429.567 429.567"><path d="M361.572 233.195c15.797-23.343 20.716-46.238 29.494-72.706 10.142-30.568 28.965-56.576 37.823-87.616 3.665-12.859-8.198-21.624-19.806-19.806-100.126 15.669-196.109 6.06-295.933 10.121-2.556-7.06-5.461-13.628-8.923-19.234-8.903-14.423-17.955-13.661-34.692-13.972-19.254-.356-45.047-5.02-62.352 4.399-12.763 6.945-7.47 29.2 7.627 28.153 2.688-.187 4.687-.659 7.175-1.848 4.852-2.319 42.499-.935 47.551 1.391 15.872 7.313 19.297 38.659 23.923 53.395 11.69 37.239 23.055 74.601 35.258 111.674.005.015.018.023.022.038-11.896 21.642-17.763 45.886-25.623 69.518-3.312 9.958 5.484 20.358 15.472 20.311 86.525-.404 173.446 1.501 259.903-1.908 19.789-.781 19.885-30.222 0-30.812-79.042-2.346-158.413-.308-237.545.407 4.367-13.352 8-26.75 9.653-40.5 58.164 17.488 136.048 4.13 194.843-.607l-.239-.579c4.599-.038 8.081-1.934 10.638-4.63 2.118-1.18 4.102-2.784 5.731-5.189zm-196.26 117.409c-1.251-2.04-2.87-3.783-4.639-5.367-6.281-12.967-22.7-16.041-35.288-11.254-13.523 5.145-23.866 18.225-25.292 32.659-3.104 31.451 39.397 46.859 58.322 22.224 1.465-1.906 2.554-3.889 3.477-5.897 6.998-9.315 9.758-22.033 3.42-32.365zm196.648-10.759c-2.39-1.414-5.016-2.318-7.708-2.976-7.231-6.648-18.256-7.197-28.102-1.61-12.966 7.357-20.14 22.733-17.679 37.33 2.561 15.182 15.386 27.227 31.02 27.97 13.703.652 28.133-9.459 34.085-21.485 6.831-13.8 1.629-31.382-11.616-39.229z"/></svg>