<svg version="1.1" xmlns="http://www.w3.org/2000/svg" xmlns:xlink="http://www.w3.org/1999/xlink" width="35" height="35" viewBox="0 0 32 32">
  <path style="fill: #ed1c24;" d="M16 1.174c-8.37 0-15.154 6.783-15.154 15.152 0 8.368 6.784 15.152 15.154 15.152 8.366 0 15.151-6.784 15.151-15.152s-6.784-15.152-15.151-15.152zM18.63 23.586c-0.132 0-0.267-0.014-0.404-0.041-0.259-0.065-0.515-0.194-0.705-0.386-1.997-1.737 1.605-8.137 1.217-8.55-0.117 0.014-0.239 0.333-0.45 0.771-1.093 2.251-3.598 8.207-5.655 8.207-0.324 0-0.806-0.122-1.159-0.491-1.166-1.215-0.259-3.597-0.067-5.591-0.252 0.251-2.734 6.082-5.021 6.082-0.041 0-0.083 0-0.124-0.004-2.072-0.194-1.801-3.056-1.157-4.792h3.342c-1.025 2.831 0.388 1.673 1.354-0.129 1.93-3.923 1.949-3.995 4.071-9.912h3.667c-1.092 3.345-2.014 6.374-2.463 9.847 0 0.129 0.062 0.257 0.192 0.194 0.773-0.129 4.864-9.397 5.247-10.040h3.671c0 0-3.903 10.812-3.259 11.839 0.322 0.583 0.771-0.513 1.157-0.963l0.581 0.58c-1.075 1.193-2.319 3.382-4.034 3.38zM24.050 23.486c-0.608 0-1.105-0.494-1.105-1.106 0-0.61 0.497-1.102 1.105-1.102s1.105 0.493 1.105 1.102c0 0.612-0.496 1.106-1.105 1.106z"></path>
</svg>