<svg width="93" height="42" viewBox="0 0 118 43" fill="none" xmlns="http://www.w3.org/2000/svg">
<path d="M39.2206 26.6846C39.2206 27.7329 38.3625 28.5799 37.3024 28.5799C36.2492 28.5799 35.3876 27.7329 35.3876 26.6846C35.3876 25.6362 36.2492 24.7892 37.3024 24.7892C38.3608 24.7892 39.2206 25.6362 39.2206 26.6846ZM62.5211 3.42009C64.2823 4.39848 57.8576 14.2216 47.7224 19.4312C46.9886 22.5371 47.7932 24.61 48.4839 24.5212C50.5989 23.8877 49.7149 18.7123 49.7149 18.7123C49.7149 18.7123 53.5221 16.8973 53.8225 16.7504C55.3454 21.4631 52.8539 28.4023 48.0833 28.5782C42.0126 28.3784 42.4079 21.5484 42.4079 21.5484L38.7924 22.6429L39.8094 19.9229C39.8094 19.9229 42.149 19.3253 42.6359 19.1921C46.759 5.43151 59.6274 1.83213 62.5211 3.42009ZM48.7049 16.6975C51.091 16.2228 60.425 6.39111 58.4861 6.56869C54.6168 7.50781 47.9365 16.2672 48.7049 16.6975ZM56.2553 15.9855V17.9491C56.2553 17.9491 58.8625 16.2706 59.0593 16.5797C59.1301 17.4624 55.834 24.9122 55.7649 26.0408C55.7062 26.5872 55.998 28.5816 57.7212 28.5816C58.1546 28.5816 58.935 28.4603 59.6429 28.0779C62.1862 26.7068 64.8952 24.0738 64.8952 24.0738C64.8952 24.0738 64.2477 25.7318 64.5309 27.0551C64.802 28.3767 66.2195 28.9179 67.7251 28.3715C69.2238 27.8166 71.1731 26.5019 71.9104 25.6242C71.7982 25.3408 71.3769 24.0123 71.3769 24.0123C71.3769 24.0123 70.0284 25.2673 69.7004 25.1085C69.3637 24.9378 73.6474 12.5381 73.6474 12.5381H68.932C68.2258 15.6952 64.1718 23.9218 61.4247 24.277C60.4855 24.2104 64.7433 14.8158 64.9021 13.7555C65.2146 12.3673 64.1718 11.727 62.9183 12.0139C61.6043 12.451 56.2553 15.9855 56.2553 15.9855ZM84.9273 12.5329H89.3923L82.1526 35H77.6375C77.6375 35 80.1739 26.3584 80.7126 25.6788C77.1196 30.1729 73.9236 28.3903 73.3573 24.68C72.841 20.1995 74.4882 15.9769 78.3593 13.5028C82.0611 11.2182 83.8585 12.9461 84.373 13.8289C84.4714 13.6189 84.9273 12.5329 84.9273 12.5329ZM83.0694 16.8392C83.104 14.9541 81.7745 14.9798 80.7178 16.1647C80.3172 16.6224 78.1348 19.8888 78.2091 22.5029C78.3524 24.7192 79.3486 24.1387 79.9805 23.7904C81.4723 22.7812 82.9279 19.0043 83.0694 16.8392ZM15.5731 28.5799C19.5823 28.5799 24.4616 17.1107 26.5905 12.7754C26.9997 11.9285 27.238 11.3138 27.4642 11.2882C28.2205 12.0804 21.2035 24.4119 25.0953 27.7569C25.4665 28.1274 25.9672 28.3801 26.4731 28.5013C30.2268 29.2458 32.8598 24.5502 35.1113 22.0658L33.9821 20.9525C33.2293 21.8165 32.3574 23.9304 31.7272 22.812C30.4823 20.8279 38.0811 0 38.0811 0H30.9295C30.1801 1.23793 22.2136 19.0931 20.7063 19.3458C20.4576 19.4636 20.3351 19.2177 20.3351 18.965C21.2053 12.2802 23.0044 6.44575 25.1333 0H17.9869C13.8499 11.3992 13.8171 11.5375 10.0566 19.0931C8.17805 22.5661 5.42066 24.791 7.42179 19.3424H0.912501C-0.342739 22.6839 -0.869353 28.1991 3.16399 28.5713C3.24514 28.5782 3.32629 28.5782 3.40399 28.5782C7.85862 28.5782 12.6948 17.348 13.1886 16.8614C12.8157 20.7032 11.0408 25.2912 13.3112 27.6339C14.0053 28.3459 14.9446 28.5799 15.5731 28.5799ZM93.7675 24.5485C95.3629 26.8451 99.9107 22.5302 99.9107 22.5302L100.96 24.1267C100.96 24.1267 97.3933 28.6652 93.2564 28.5799C91.3105 28.5423 90.6613 27.9891 89.4009 26.9834C88.9986 27.2566 87.5051 28.141 87.5051 28.141L86.7195 26.0391C86.7195 26.0391 87.8452 25.4364 88.3787 25.1205C87.1667 14.5324 97.8682 10.6667 101.774 12.8283C104.415 14.4146 102.356 20.0766 93.7675 24.5485ZM93.4809 22.6003C98.1099 18.9736 100.08 15.5671 99.1044 14.8978C98.1358 14.225 96.1346 15.9086 94.907 18.0652C93.6708 20.2251 93.2944 22.2827 93.4809 22.6003ZM103.039 25.8735C103.324 26.5292 104.472 28.5116 106.943 28.5782C107.986 28.6106 109.124 28.2606 110.857 27.3283C116.671 24.1933 118.095 16.356 117.995 14.8756C117.969 11.7082 115.732 12.1607 115.355 12.2751C112.247 13.303 109.53 17.1448 109.53 17.1448L110.876 18.4784C110.876 18.4784 112.156 16.0708 113.387 16.0708C114.62 16.0708 112.662 20.7681 112.349 21.4631C110.731 24.989 107.801 26.5036 106.998 23.3874C105.988 18.2718 113.052 12.7515 113.052 12.7515L108.259 12.7498C108.261 12.7532 100.218 18.9445 103.039 25.8735Z" fill="#ED1C24"/>
<path d="M115.952 41.1292H117V39.9442H115.952V41.1292ZM108.593 41.1292H109.37V37.9234L111.141 41.1547H111.711L113.501 37.89V41.1292H114.305V37.0048H113.249L111.469 40.252L109.689 37.0048H108.597V41.1292H108.593ZM104.88 40.5279C103.986 40.5279 103.38 39.8772 103.38 39.067C103.38 38.2568 103.986 37.6061 104.88 37.6061C105.774 37.6061 106.38 38.2488 106.38 39.067C106.38 39.8852 105.774 40.5279 104.88 40.5279ZM104.88 36.9043C103.542 36.9043 102.531 37.8389 102.531 39.067C102.531 40.2951 103.542 41.2297 104.88 41.2297C106.209 41.2297 107.229 40.2951 107.229 39.067C107.229 37.8389 106.209 36.9043 104.88 36.9043ZM100.245 40.4434H97.8232C98.0666 40.0925 98.1753 39.5662 98.3013 38.6061L98.4187 37.6874H100.243V40.4434H100.245ZM97.2259 42.3732V41.1292H101.148V42.3732H101.88V40.445H101.067V37.0048H97.7593L97.5694 38.5486C97.4434 39.5758 97.307 40.11 97.0274 40.4434H96.494V42.3716H97.2259V42.3732ZM93.1468 38.949C92.6134 38.949 92.3251 38.6986 92.3251 38.2887C92.3251 37.8884 92.6151 37.6874 93.1468 37.6874H94.6831V38.9474H93.1468V38.949ZM95.5048 41.1292V37.0048H93.0467C91.9436 37.0048 91.4568 37.622 91.4568 38.2903C91.4568 38.8995 91.7813 39.3764 92.5046 39.5343L91.3204 41.1292H92.2699L93.3539 39.6348H94.6831V41.1292H95.5048ZM88.1907 35.9522C89.0124 35.9522 89.4198 36.311 89.4198 36.9298C89.4198 37.4976 89.0124 37.9075 88.1907 37.9075H85.705V35.9537H88.1907V35.9522ZM84.8298 41.1292H85.7067V38.6571H88.1648C89.5838 38.6571 90.3244 37.9553 90.3244 36.9123C90.3244 35.8262 89.5838 35.201 88.1648 35.201H84.8298V41.1292ZM79.601 41.1292H80.6488V39.9442H79.601V41.1292ZM75.9431 40.5279C75.0489 40.5279 74.443 39.8772 74.443 39.067C74.443 38.2568 75.0489 37.6061 75.9431 37.6061C76.8373 37.6061 77.4432 38.2488 77.4432 39.067C77.4432 39.8852 76.8373 40.5279 75.9431 40.5279ZM75.9431 36.9043C74.6052 36.9043 73.5936 37.8389 73.5936 39.067C73.5936 40.2951 74.6052 41.2297 75.9431 41.2297C77.2723 41.2297 78.2925 40.2951 78.2925 39.067C78.2925 37.8389 77.2705 36.9043 75.9431 36.9043ZM68.7118 39.067C68.7118 38.2408 69.3091 37.6061 70.2119 37.6061C71.1165 37.6061 71.712 38.2408 71.712 39.067C71.712 39.8852 71.1148 40.5279 70.2119 40.5279C69.3091 40.5279 68.7118 39.8852 68.7118 39.067ZM68.7308 40.4609C68.8396 40.6523 69.3626 41.2297 70.3569 41.2297C71.5498 41.2297 72.5527 40.437 72.5527 39.067C72.5527 37.7145 71.5498 36.9043 70.3569 36.9043C69.354 36.9043 68.8396 37.5056 68.7308 37.7145V37.0048H67.9178V43H68.7308V40.4609ZM64.1684 41.1292H64.9901V37.689H66.7974V37.0048H62.361V37.689H64.1684V41.1292ZM60.8885 38.2903H61.7206C61.6567 37.9809 61.1958 36.9043 59.5886 36.9043C58.3147 36.9043 57.329 37.8485 57.329 39.067C57.329 40.2855 58.3233 41.2297 59.5973 41.2297C61.1975 41.2297 61.667 40.1276 61.7206 39.8437H60.9075C60.835 39.9856 60.5001 40.5279 59.5973 40.5279C58.7652 40.5279 58.1783 39.8772 58.1783 39.067C58.1783 38.2568 58.7652 37.6061 59.5886 37.6061C60.4725 37.6061 60.816 38.1563 60.8885 38.2903ZM52.5214 39.0159C53.1722 39.0159 53.5244 39.2839 53.5244 39.7177C53.5244 40.2105 53.1722 40.4434 52.5214 40.4434H51.2561V39.0159H52.5214ZM55.1418 41.1292H55.9653V37.0048H55.1436V41.1292H55.1418ZM52.6129 38.3317H51.2578V37.0048H50.4361V41.1292H52.6233C53.8523 41.1292 54.3944 40.445 54.3944 39.7177C54.3927 38.933 53.8506 38.3317 52.6129 38.3317ZM46.7092 38.3732C47.6033 38.3732 48.047 38.7911 48.047 39.3828C48.047 40.0175 47.6033 40.3764 46.7092 40.3764H44.396V38.3732H46.7092ZM46.6815 37.622H44.396V35.9601H48.4544V35.201H43.5191V41.1292H46.6815C48.173 41.1292 48.9498 40.4944 48.9498 39.4003C48.9498 38.3397 48.173 37.622 46.6815 37.622ZM38.2903 41.1292H39.3381V39.9442H38.2903V41.1292ZM32.4936 41.1292H33.3152V39.3764H35.8183V41.1292H36.64V37.0048H35.8183V38.6906H33.3152V37.0048H32.4936V41.1292ZM26.5536 41.1292H27.3752L29.9681 37.9984V41.1292H30.7898V37.0048H29.9681L27.3752 40.11V37.0048H26.5536V41.1292ZM28.6855 35.7432C28.2884 35.7432 28.1158 35.4434 28.1158 35.1419V35H27.4288V35.1579C27.4288 35.8262 27.8448 36.3429 28.6855 36.3429C29.5261 36.3429 29.9422 35.8246 29.9422 35.1579V35H29.2551V35.1419C29.2551 35.4514 29.0842 35.7432 28.6855 35.7432ZM24.0488 39.067C24.0488 39.8852 23.4705 40.5279 22.6022 40.5279C21.708 40.5279 21.1193 39.8852 21.1193 39.067C21.1193 38.2408 21.7063 37.6061 22.6022 37.6061C23.4705 37.6061 24.0488 38.2392 24.0488 39.067ZM24.0298 40.4195V41.1292H24.8515V37.0048H24.0298V37.689C23.921 37.4721 23.4239 36.9043 22.4486 36.9043C21.273 36.9043 20.27 37.7225 20.27 39.067C20.27 40.4274 21.273 41.2297 22.4486 41.2297C23.4619 41.2297 23.9228 40.6284 24.0298 40.4195ZM15.3278 39.2919C15.2277 40.236 15.1017 40.5024 14.4871 40.5024H14.3784V41.1866H14.6218C15.5798 41.1866 15.9234 40.6108 16.058 39.3413L16.2289 37.6874H18.0725V41.1276H18.8942V37.0032H15.5712L15.3278 39.2919ZM9.10643 41.1292H9.92812V39.3764H12.4312V41.1292H13.2529V37.0048H12.4312V38.6906H9.92812V37.0048H9.10643V41.1292ZM4.31611 40.4769C2.86952 40.4769 1.90283 39.4577 1.90283 38.1643C1.90283 36.8947 2.86952 35.8517 4.31611 35.8517C5.7627 35.8517 6.7294 36.9043 6.7294 38.1643C6.7294 39.4418 5.76098 40.4769 4.31611 40.4769ZM4.31611 41.2297C6.20462 41.2297 7.63222 39.8931 7.63222 38.1659C7.63222 36.4386 6.20462 35.1021 4.31611 35.1021C2.41897 35.1021 1 36.4386 1 38.1659C0.998275 39.9091 2.39998 41.2297 4.31611 41.2297Z" fill="#ED1C24"/>
</svg>
