<?xml version="1.0" encoding="iso-8859-1"?>
<!-- Generator: Adobe Illustrator 19.0.0, SVG Export Plug-In . SVG Version: 6.00 Build 0)  -->
<svg version="1.1" id="Layer_1" xmlns="http://www.w3.org/2000/svg" xmlns:xlink="http://www.w3.org/1999/xlink" x="0px" y="0px"
	 viewBox="0 0 455 455" style="enable-background:new 0 0 455 455;" xml:space="preserve">
<g>
	<rect x="98.583" width="257.835" height="75.169"/>
	<path d="M98.583,455h257.835V276.557H98.583V455z M143.276,311.038h168.447v30H143.276V311.038z M143.276,375.519h168.447v30
		H143.276V375.519z"/>
	<path d="M326.297,201.556H128.703c-16.635,0-30.121,13.486-30.121,30.121v14.879h257.835v-14.879
		C356.417,215.042,342.932,201.556,326.297,201.556z"/>
	<path d="M14.244,105.169v212.051h54.339v-85.543c0-33.151,26.97-60.121,60.121-60.121h197.593c33.151,0,60.121,26.97,60.121,60.121
		v85.543h54.339V105.169H14.244z"/>
</g>
<g>
</g>
<g>
</g>
<g>
</g>
<g>
</g>
<g>
</g>
<g>
</g>
<g>
</g>
<g>
</g>
<g>
</g>
<g>
</g>
<g>
</g>
<g>
</g>
<g>
</g>
<g>
</g>
<g>
</g>
</svg>
