<svg xmlns="http://www.w3.org/2000/svg" width="35" height="35" viewBox="0 0 32 32"><path d="M16 1.174C7.63 1.174.846 7.957.846 16.326.846 24.694 7.63 31.478 16 31.478c8.366 0 15.151-6.784 15.151-15.152S24.367 1.174 16 1.174zm2.63 22.412a2.09 2.09 0 01-.404-.041 1.517 1.517 0 01-.705-.386c-1.997-1.737 1.605-8.137 1.217-8.55-.117.014-.239.333-.45.771-1.093 2.251-3.598 8.207-5.655 8.207-.324 0-.806-.122-1.159-.491-1.166-1.215-.259-3.597-.067-5.591-.252.251-2.734 6.082-5.021 6.082-.041 0-.083 0-.124-.004-2.072-.194-1.801-3.056-1.157-4.792h3.342c-1.025 2.831.388 1.673 1.354-.129 1.93-3.923 1.949-3.995 4.071-9.912h3.667c-1.092 3.345-2.014 6.374-2.463 9.847 0 .129.062.257.192.194.773-.129 4.864-9.397 5.247-10.04h3.671s-3.903 10.812-3.259 11.839c.322.583.771-.513 1.157-.963l.581.58c-1.075 1.193-2.319 3.382-4.034 3.38zm5.42-.1a1.104 1.104 0 11-.002-2.208 1.104 1.104 0 01.002 2.208z" fill="#ed1c24"/></svg>