<svg width="93" height="42" viewBox="0 0 118 43" fill="none" xmlns="http://www.w3.org/2000/svg"><path d="M39.22 26.685a1.905 1.905 0 01-1.918 1.895 1.907 1.907 0 01-1.914-1.895c0-1.049.861-1.896 1.914-1.896 1.059 0 1.919.847 1.919 1.896zM62.522 3.42c1.761.978-4.663 10.802-14.799 16.011-.733 3.106.071 5.179.762 5.09 2.115-.633 1.23-5.809 1.23-5.809s3.808-1.815 4.108-1.962c1.523 4.713-.968 11.652-5.739 11.828-6.07-.2-5.675-7.03-5.675-7.03l-3.616 1.095 1.017-2.72s2.34-.598 2.827-.73C46.759 5.431 59.627 1.832 62.52 3.42zM48.705 16.698c2.386-.475 11.72-10.307 9.781-10.13-3.87.94-10.55 9.7-9.781 10.13zm7.55-.713v1.964s2.607-1.678 2.804-1.37c.071.883-3.225 8.333-3.294 9.462-.059.546.233 2.54 1.956 2.54.434 0 1.214-.12 1.922-.503 2.543-1.371 5.252-4.004 5.252-4.004s-.647 1.658-.364 2.981c.271 1.322 1.688 1.863 3.194 1.317 1.499-.555 3.448-1.87 4.185-2.748-.112-.283-.533-1.612-.533-1.612s-1.349 1.255-1.677 1.096c-.336-.17 3.947-12.57 3.947-12.57h-4.715c-.706 3.157-4.76 11.384-7.507 11.739-.94-.067 3.318-9.461 3.477-10.522.313-1.388-.73-2.028-1.984-1.741-1.314.437-6.663 3.972-6.663 3.972zm28.672-3.452h4.465L82.152 35h-4.514s2.536-8.642 3.075-9.321c-3.593 4.494-6.79 2.711-7.356-.999-.516-4.48 1.131-8.703 5.002-11.177 3.702-2.285 5.5-.557 6.014.326.098-.21.554-1.296.554-1.296zm-1.858 4.306c.035-1.885-1.294-1.86-2.351-.674-.4.457-2.583 3.724-2.509 6.338.143 2.216 1.14 1.636 1.772 1.287 1.491-1.009 2.947-4.786 3.088-6.95zM15.573 28.58c4.01 0 8.889-11.468 11.017-15.804.41-.847.648-1.461.874-1.487.757.792-6.26 13.124-2.369 16.469.372.37.872.623 1.378.744 3.754.745 6.387-3.95 8.638-6.435l-1.129-1.113c-.753.864-1.625 2.977-2.255 1.859C30.482 20.828 38.081 0 38.081 0H30.93c-.749 1.238-8.715 19.093-10.223 19.346-.248.118-.37-.128-.37-.381.87-6.685 2.668-12.52 4.797-18.965h-7.146c-4.137 11.4-4.17 11.537-7.93 19.093-1.879 3.473-4.636 5.698-2.635.25H.912c-1.255 3.34-1.781 8.856 2.252 9.228.081.007.162.007.24.007 4.455 0 9.29-11.23 9.785-11.717-.373 3.842-2.148 8.43.122 10.773.694.712 1.634.946 2.262.946zm78.195-4.03c1.595 2.296 6.143-2.019 6.143-2.019l1.049 1.597s-3.567 4.538-7.704 4.453c-1.945-.038-2.595-.59-3.855-1.597-.402.274-1.896 1.158-1.896 1.158l-.785-2.102s1.125-.603 1.659-.919c-1.212-10.588 9.49-14.453 13.395-12.292 2.641 1.587.582 7.249-8.007 11.72zm-.288-1.95c4.629-3.626 6.599-7.033 5.623-7.702-.968-.673-2.97 1.01-4.197 3.167-1.236 2.16-1.613 4.218-1.426 4.535zm9.558 3.273c.285.656 1.433 2.639 3.904 2.705 1.043.033 2.181-.317 3.914-1.25 5.814-3.135 7.238-10.972 7.138-12.452-.026-3.168-2.263-2.715-2.64-2.6-3.108 1.027-5.825 4.869-5.825 4.869l1.346 1.333s1.28-2.407 2.511-2.407c1.233 0-.725 4.697-1.038 5.392-1.618 3.526-4.548 5.04-5.351 1.924-1.01-5.115 6.054-10.636 6.054-10.636l-4.793-.001c.002.003-8.041 6.195-5.22 13.123zm12.914 15.257H117v-1.186h-1.048v1.185zm-7.359 0h.777v-3.207l1.771 3.232h.57l1.79-3.265v3.24h.804v-4.125h-1.056l-1.78 3.247-1.78-3.247h-1.092v4.124h-.004zm-3.713-.602c-.894 0-1.5-.65-1.5-1.461 0-.81.606-1.46 1.5-1.46s1.5.642 1.5 1.46-.606 1.46-1.5 1.46zm0-3.624c-1.338 0-2.349.935-2.349 2.163 0 1.228 1.011 2.163 2.349 2.163 1.329 0 2.349-.935 2.349-2.163 0-1.228-1.02-2.163-2.349-2.163zm-4.635 3.54h-2.422c.244-.352.352-.878.478-1.838l.118-.919h1.824v2.756h.002zm-3.02 1.93v-1.245h3.923v1.244h.732v-1.928h-.813v-3.44h-3.308l-.19 1.544c-.126 1.027-.262 1.561-.542 1.894h-.533v1.929h.732v.001zm-4.078-3.425c-.534 0-.822-.25-.822-.66 0-.4.29-.602.822-.602h1.536v1.26h-1.536v.002zm2.358 2.18v-4.124h-2.458c-1.103 0-1.59.617-1.59 1.285 0 .61.324 1.086 1.048 1.244L91.32 41.13h.95l1.084-1.494h1.33v1.494h.82zm-7.314-5.177c.821 0 1.229.359 1.229.978 0 .568-.408.977-1.23.977h-2.485v-1.953h2.486v-.002zM84.83 41.13h.877v-2.472h2.458c1.419 0 2.16-.702 2.16-1.745 0-1.086-.741-1.711-2.16-1.711H84.83v5.928zm-5.229 0h1.048v-1.185H79.6v1.185zm-3.658-.601c-.894 0-1.5-.65-1.5-1.461 0-.81.606-1.46 1.5-1.46s1.5.642 1.5 1.46-.606 1.46-1.5 1.46zm0-3.624c-1.338 0-2.35.935-2.35 2.163 0 1.228 1.012 2.163 2.35 2.163 1.33 0 2.35-.935 2.35-2.163 0-1.228-1.023-2.163-2.35-2.163zm-7.231 2.163c0-.826.597-1.46 1.5-1.46.904 0 1.5.634 1.5 1.46 0 .818-.597 1.46-1.5 1.46s-1.5-.642-1.5-1.46zm.019 1.394c.109.191.632.769 1.626.769 1.193 0 2.196-.793 2.196-2.163 0-1.352-1.003-2.163-2.196-2.163-1.003 0-1.517.602-1.626.81v-.71h-.813V43h.813v-2.54zm-4.563.668h.822v-3.44h1.807v-.684h-4.436v.684h1.807v3.44zm-3.28-2.839h.833c-.064-.31-.525-1.386-2.132-1.386-1.274 0-2.26.944-2.26 2.163 0 1.218.994 2.163 2.268 2.163 1.6 0 2.07-1.102 2.124-1.386h-.813c-.073.142-.408.684-1.31.684-.833 0-1.42-.65-1.42-1.461 0-.81.587-1.46 1.41-1.46.884 0 1.228.55 1.3.683zm-8.367.726c.651 0 1.003.268 1.003.702 0 .492-.352.725-1.003.725h-1.265v-1.427h1.265zm2.62 2.113h.824v-4.124h-.821v4.124h-.002zm-2.528-2.797h-1.355v-1.327h-.822v4.124h2.187c1.23 0 1.771-.684 1.771-1.411-.001-.785-.543-1.386-1.781-1.386zm-5.904.041c.894 0 1.338.418 1.338 1.01 0 .634-.444.993-1.338.993h-2.313v-2.003h2.313zm-.028-.751h-2.285V35.96h4.058v-.759H43.52v5.928h3.163c1.491 0 2.268-.635 2.268-1.729 0-1.06-.777-1.778-2.269-1.778zm-8.39 3.507h1.047v-1.185H38.29v1.185zm-5.797 0h.821v-1.753h2.503v1.753h.822v-4.124h-.822v1.686h-2.503v-1.686h-.821v4.124zm-5.94 0h.821L29.968 38v3.13h.822v-4.124h-.822l-2.593 3.105v-3.105h-.821v4.124zm2.132-5.386c-.398 0-.57-.3-.57-.601V35h-.687v.158c0 .668.416 1.185 1.257 1.185.84 0 1.256-.518 1.256-1.185V35h-.687v.142c0 .31-.17.601-.57.601zm-4.637 3.324c0 .818-.578 1.46-1.447 1.46-.894 0-1.483-.642-1.483-1.46 0-.826.587-1.46 1.483-1.46.869 0 1.447.632 1.447 1.46zm-.02 1.352v.71h.823v-4.124h-.822v.684c-.109-.217-.606-.785-1.581-.785-1.176 0-2.179.818-2.179 2.163 0 1.36 1.003 2.163 2.179 2.163 1.013 0 1.474-.602 1.58-.81zm-8.701-1.127c-.1.944-.226 1.21-.84 1.21h-.11v.685h.244c.958 0 1.301-.576 1.436-1.846l.17-1.654h1.845v3.44h.821v-4.124h-3.323l-.243 2.289zM9.106 41.13h.822v-1.753h2.503v1.753h.822v-4.124h-.822v1.686H9.928v-1.686h-.822v4.124zm-4.79-.652c-1.446 0-2.413-1.02-2.413-2.313 0-1.27.967-2.312 2.413-2.312 1.447 0 2.413 1.052 2.413 2.312 0 1.278-.968 2.313-2.413 2.313zm0 .753c1.889 0 3.316-1.337 3.316-3.064s-1.427-3.064-3.316-3.064C2.42 35.102 1 36.44 1 38.166c-.002 1.743 1.4 3.064 3.316 3.064z" fill="#ED1C24"/></svg>